<?xml version="1.0" encoding="utf-8"?>
<!-- Generator: Adobe Illustrator 23.0.4, SVG Export Plug-In . SVG Version: 6.00 Build 0)  -->
<svg version="1.1" id="Ebene_1" xmlns="http://www.w3.org/2000/svg" xmlns:xlink="http://www.w3.org/1999/xlink" x="0px" y="0px"
	 viewBox="0 0 186.4 140" style="enable-background:new 0 0 186.4 140;" xml:space="preserve">
<style type="text/css">
	.st0{fill:#986B53;}
</style>
<g>
	<path class="st0" d="M6.6,134.9h3.2v1.7c-0.9,1.4-2.2,2.1-3.8,2.1c-2.6,0-4.5-2-4.5-4.7c0-2.7,1.9-4.7,4.5-4.7
		c1.7,0,3.1,0.8,3.9,2.2l1.2-0.9c-1.1-1.7-2.9-2.7-5.1-2.7c-3.5,0-6,2.6-6,6.1c0,3.5,2.5,6,6,6c2.3,0,4.1-1.1,5.2-3v-3.5H6.6V134.9z
		"/>
	<path class="st0" d="M22.1,136.5c0,1.8-0.7,2.2-3,2.2c-2.4,0-3-0.4-3-2.2v-5.7h-1.4v6.1c0,2.2,1.2,3.1,4.4,3.1
		c3.1,0,4.4-0.9,4.4-3.1v-6.1h-1.4V136.5z"/>
	<polygon class="st0" points="25.6,132 29.4,132 29.4,139.7 30.8,139.7 30.8,132 34.6,132 34.6,130.8 25.6,130.8 	"/>
	<polygon class="st0" points="53,132.7 46.2,132.7 46.2,128.1 44.7,128.1 44.7,139.7 46.2,139.7 46.2,134 53,134 53,139.7 
		54.5,139.7 54.5,128.1 53,128.1 	"/>
	<polygon class="st0" points="59.8,135.6 64.4,135.6 64.4,134.3 59.8,134.3 59.8,132.1 66.8,132.1 66.8,130.8 58.4,130.8 
		58.4,139.7 67.2,139.7 67.2,138.4 59.8,138.4 	"/>
	<path class="st0" d="M79,133.3c0-1.6-1.1-2.5-2.9-2.5h-6.2v8.9h1.4v-3.9h3.9l2.5,3.9h1.5l-2.5-3.9C78.1,135.6,79,134.5,79,133.3z
		 M71.3,134.5v-2.4h4.8c1,0,1.5,0.4,1.5,1.2c0,0.8-0.5,1.2-1.5,1.2H71.3z"/>
	<polygon class="st0" points="87.1,136 83.4,130.8 82.2,130.8 82.2,139.7 83.6,139.7 83.6,133.3 87.1,138.2 90.5,133.3 90.5,139.7 
		91.9,139.7 91.9,130.8 90.7,130.8 	"/>
	<path class="st0" d="M98.5,130.8l-4.5,8.9h1.5l1.2-2.3h4.7l1.2,2.3h1.5l-4.6-8.9H98.5z M97.2,136.2l1.8-3.4l1.7,3.4H97.2z"/>
	<polygon class="st0" points="112.4,137 106.7,130.8 106,130.8 106,139.7 107.4,139.7 107.4,133.4 113.1,139.7 113.8,139.7 
		113.8,130.8 112.4,130.8 	"/>
	<polygon class="st0" points="124,137 118.3,130.8 117.6,130.8 117.6,139.7 119,139.7 119,133.4 124.6,139.7 125.4,139.7 
		125.4,130.8 124,130.8 	"/>
	<path class="st0" d="M133,134.2c-1.9,0-2.8-0.2-2.8-1.1c0-0.7,0.8-1.3,2.3-1.3c1.1,0,2.5,0.4,3.6,1.2l0.7-1.2
		c-1.4-0.9-2.8-1.3-4.3-1.3c-2.3,0-3.7,1.1-3.7,2.6c0,1.9,1.5,2.3,4.3,2.3c1.9,0,2.8,0.5,2.8,1.5c0,1-1,1.7-2.7,1.7
		c-1.3,0-2.8-0.4-4.1-1.3l-0.7,1.2c1.5,0.9,3.2,1.4,4.9,1.4c2.5,0,4-1.4,4-2.9C137.3,135.2,135.8,134.2,133,134.2z"/>
	<path class="st0" d="M147.9,134.6c0.6-0.3,0.9-0.9,0.9-1.7c0-1.4-0.9-2.2-2.8-2.2h-5.5v8.9h5.8c2,0,3.1-1.1,3.1-2.7
		C149.4,136,148.9,135.2,147.9,134.6z M141.9,132.1h4.1c0.9,0,1.4,0.3,1.4,1.1c0,0.7-0.4,1.1-1.4,1.1h-4.1V132.1z M146.4,138.4h-4.5
		v-2.9h4.5c1,0,1.5,0.6,1.5,1.5C147.9,137.9,147.4,138.4,146.4,138.4z"/>
	<polygon class="st0" points="154.2,135.6 158.8,135.6 158.8,134.3 154.2,134.3 154.2,132.1 161.2,132.1 161.2,130.8 152.8,130.8 
		152.8,139.7 161.6,139.7 161.6,138.4 154.2,138.4 	"/>
	<path class="st0" d="M173.4,133.3c0-1.6-1.1-2.5-2.9-2.5h-6.2v8.9h1.4v-3.9h3.9l2.5,3.9h1.5l-2.5-3.9
		C172.5,135.6,173.4,134.5,173.4,133.3z M165.7,134.5v-2.4h4.8c1,0,1.5,0.4,1.5,1.2c0,0.8-0.5,1.2-1.5,1.2H165.7z"/>
	<path class="st0" d="M182.7,134.9v1.3h2.3v1c-0.5,0.8-1.9,1.5-3.5,1.5c-2.6,0-4.2-1.5-4.2-3.4s1.7-3.4,4.2-3.4
		c1.6,0,2.9,0.6,3.7,1.6l1.1-0.8c-1-1.4-2.7-2.1-4.7-2.1c-3.4,0-5.6,2.1-5.6,4.7c0,2.7,2.2,4.7,5.6,4.7c2.2,0,3.9-0.8,4.9-2.3v-2.7
		H182.7z"/>
	<path class="st0" d="M83.2,6.2c1.1,1.4,1.7,3.1,2,3.9c0.1,0.3,0.2,0.3,0.3,0.3c0,0,0.1,0,0.2,0c0.6-0.6,3.9-1,7.8-1
		c3.9,0,7.2,0.4,7.8,1c0.1,0,0.2,0,0.2,0c0.1,0,0.1-0.1,0.2-0.3c0.2-0.7,0.9-2.5,2-4c0.7-0.9,1.5-1.5,2-1.9c0.5-0.5-0.1-0.6-0.8-0.3
		c-0.4,0.2-0.8,0.4-1.2,0.8l-0.1,0.1c-0.2-0.2-0.5-0.4-0.8-0.4c-0.5,0-0.9,0.4-0.9,0.9c0,0.3,0.2,0.6,0.5,0.8
		c-0.2,0.2-0.4,0.4-0.5,0.6c-1.3,1.3-3,0.4-2.9-0.8c0-0.3,0-0.4,0-0.6c0,0,0.1,0,0.1,0c0.5,0,0.9-0.4,0.9-0.8c0-0.5-0.4-0.8-0.9-0.8
		c-0.5,0-0.9,0.4-0.9,0.8c0,0.3,0.2,0.6,0.4,0.7c0,0-0.1,0.1-0.2,0.2c-0.3,0.3-0.6,0.6-0.9,0.7c-0.3,0.2-0.7,0.3-1.2,0.3
		c-1.3,0-2.3-0.9-2.4-2c0.1,0.1,0.3,0.1,0.5,0.1c0.6,0,1.1-0.5,1.1-1c0-0.6-0.5-1-1.1-1l-0.1,0C94.2,1,93.8,0,93.3,0
		c-0.5,0-0.9,1-0.9,2.2c-0.6,0-1.1,0.5-1.1,1c0,0.6,0.5,1,1.1,1c0.2,0,0.3,0,0.4-0.1l0,0.1c-0.2,1.1-1.2,1.9-2.4,1.9
		c-0.4,0-0.8-0.1-1.2-0.3c-0.4-0.2-0.6-0.4-0.9-0.7c-0.1-0.1-0.1-0.1-0.2-0.2c0.3-0.1,0.4-0.4,0.4-0.7c0-0.5-0.4-0.8-0.9-0.8
		c-0.5,0-0.9,0.4-0.9,0.8c0,0.5,0.4,0.8,0.9,0.8c0,0,0.1,0,0.1,0c0,0.1,0,0.3,0,0.6c0,1.2-1.6,2.2-2.9,0.8c-0.1-0.1-0.3-0.3-0.6-0.6
		c0.3-0.1,0.5-0.4,0.5-0.8c0-0.5-0.4-0.9-0.9-0.9c-0.3,0-0.6,0.2-0.8,0.4l-0.1-0.1c-0.3-0.3-0.7-0.5-1-0.7c-0.8-0.4-1.5-0.3-0.8,0.3
		C81.8,4.8,82.6,5.4,83.2,6.2z"/>
	<path class="st0" d="M86.6,14c0.8-0.4,3.4-0.7,6.7-0.7c3.1,0,5.7,0.3,6.6,0.7c0.7,0.3,1.2-0.8,0.4-1c-1.2-0.5-3.9-0.7-7-0.7
		c-3.2,0-6.1,0.3-7.2,0.8C85.4,13.3,85.9,14.3,86.6,14z"/>
	<path class="st0" d="M86.7,12.2c0.5,0,0.8-0.4,0.8-0.8c0-0.4-0.4-0.8-0.8-0.8c-0.5,0-0.8,0.3-0.8,0.8
		C85.8,11.9,86.2,12.2,86.7,12.2z"/>
	<path class="st0" d="M90.8,11c0-0.4-0.4-0.8-0.8-0.8c-0.5,0-0.8,0.3-0.8,0.8c0,0.4,0.4,0.8,0.8,0.8C90.4,11.8,90.8,11.4,90.8,11z"
		/>
	<path class="st0" d="M94,10.8c0-0.4-0.4-0.8-0.8-0.8c-0.5,0-0.8,0.3-0.8,0.8c0,0.4,0.4,0.8,0.8,0.8C93.7,11.6,94,11.3,94,10.8z"/>
	<path class="st0" d="M100.5,11.4c0-0.4-0.4-0.8-0.8-0.8c-0.5,0-0.8,0.4-0.8,0.8c0,0.4,0.4,0.8,0.8,0.8
		C100.1,12.2,100.5,11.9,100.5,11.4z"/>
	<path class="st0" d="M97.4,10.9c0-0.4-0.4-0.8-0.8-0.8c-0.5,0-0.8,0.3-0.8,0.8c0,0.4,0.4,0.8,0.8,0.8
		C97.1,11.7,97.4,11.4,97.4,10.9z"/>
	<path class="st0" d="M74.4,24.9c1.9,0.4,3.7,0.1,7.2-1c3.5-1.1,5.6-2.1,7.4-1.9c-0.5-0.4-0.8-0.4-1.4-0.4c-3.1,0-8.6,1.9-10.9,1.8
		c-2.3-0.1-2.8-1.3-2.5-1.9c0.3-0.7,1.2-0.8,1.2-0.8s-1.5-0.8-2.9,0.7C71,22.9,72.4,24.5,74.4,24.9z"/>
	<path class="st0" d="M154.6,117.1c-0.5-1.6-23.8-52.3-30.2-68c0,0-0.1-0.1,0.1-0.2c0.1,0,0.1,0.1,0.1,0.1
		c9.4,16.7,32.4,57.8,34.9,62.4c2.2,4.1,8.2,4.8,7.7,3c-0.5-1.5-29.3-55.3-37.3-70.3c0,0,0-0.1,0-0.1c0,0,0.1,0.1,0.1,0.1
		c10,15.7,41,63.7,42.5,66.1c1.9,2.9,7.4,4.6,6.6,2.7c-0.6-1.6-38.5-55.3-48.6-69.5c0,0,0-0.1,0-0.1c0,0,0.1,0,0.1,0l45.2,52.9
		c3,3.5,8.9,3,8,1.4c-0.7-1.2-35.5-41.7-49.9-58.9c-0.1-0.1,0-0.1,0.1-0.1c12.8,12.1,43.1,40.7,44.8,42.2c2.2,2.1,6.2,2.3,5.1,0.8
		c-0.9-1.3-39.4-35.5-49.1-44c0,0,0-0.1,0-0.1c0-0.1,0.1,0,0.1,0c11,7.7,36.2,25.5,39.5,27.4c4,2.3,10.6,1.5,9.4,0.2
		c-1.1-1.1-36.1-25.6-46.9-33.1c0,0,0,0,0-0.1c0,0,0,0,0.1,0c11.3,5.8,38.6,19.9,40.9,20.8c2.9,1.2,6.7,0.5,5.1-0.5
		c-1.3-0.8-35.1-16.5-45.8-21.4c0,0,0,0,0-0.1c0,0,0,0,0.1,0c10.3,3,35.4,10.4,40.8,11.1c3,0.4,7-2.3,5.9-2.8
		c-0.9-0.4-35.8-10.3-46.8-13.4c-0.1,0-0.1,0-0.1-0.1c0,0,0,0,0.1,0c12.7,1.9,39.9,6.1,41.6,6.1c2.3,0,4.7-1.7,3.3-1.9
		c-1.1-0.2-31.7-3.6-44.6-5c-0.1,0-0.2,0-0.3,0c-0.1,0-0.1-0.1,0.1-0.1c13.3,0.1,36.6,0.4,42.4-0.4c2.5-0.3,5.2-3.7,4.2-3.8
		c-0.7-0.1-28.9-0.4-45.1-0.6c0,0-0.1,0-0.1,0c0,0,0,0,0.1,0c7.1-0.3,12.3-0.5,15.1-0.9c1.7-0.3,3.5-2.6,2.5-2.5
		c-0.6,0-12,2.2-21.5,2.7c0.8-0.2,2.8-0.6,5.4-1.6c4.6-1.9,2.2-5.2-1.4-5.7c-3.6-0.5-5.3,0.6-5.1,1c0.2,0.4,2.9,0,4,1.2
		c1.1,1.2,0.1,2.7-3.4,3.9c-1.7,0.6-4.2,1.1-6.8,1.1l-0.4,0c-4.1,0-7.7,1.7-9.4,4.2c-0.7,1-1,2.1-1,3.2c0,2.4,1.6,4.6,4.1,5.9
		c-1,5.5-6.8,10.2-14.9,12.4c-0.5,0.1-1.4,0.7-2.5,1.6c0,0,0-0.1,0-0.1c-2.8-4.5,0.6-8.5-1.4-14c-0.3-0.8-1.2-2.4-0.2-1.9
		c1,0.5,2.6,0.5,2.1,0.1c-0.5-0.5-1.4-1.2-2.3-2.7c-0.9-1.5-1.6-3.6-0.3-3.4c1.3,0.2,2.4,0,0.3-1.2c-2.1-1.2-2.9-2.6-2.9-2.6
		s2.9,0.1,4.2-0.9c1.3-1,1.2-2.5,1.2-2.5s-0.9,1.5-3.3,1.2c-2.4-0.2-3.3-0.9-3.3-0.9s2.2-0.1,3.6-0.6c0.9-0.4,1.8-0.9,0.8-0.8
		c-1,0-12.1-0.2-13.6-0.1c-1.5,0.1-7.8,0.4-7.7,2.7c0.1,2.3,1.8,3.1,1.8,3.1s-0.2-0.7,0.6-0.9c0.8-0.2,2.2-0.3,4.7,0.4
		c2.5,0.7,2.7,0.1,2.7,0.5c0,0.3-1.8,1.1-3.4,1.6c-1.6,0.5-2.2,1.3-1.3,1.1c0.9-0.3,2.8-0.2,3.6,0.2c0.8,0.4,1.9,1.9,1.1,4.8
		c-0.9,3.4-3.9,5.8-5.7,8.3c-2.1,3.1-3,5.1-2.6,9.1c-0.4-0.9-1-1.5-1.7-1.9c-8.1-2.2-13.9-6.9-14.9-12.4c2.5-1.4,4.1-3.5,4.1-5.9
		c0-1.2-0.4-2.3-1-3.2c-1.7-2.5-5.2-4.2-9.4-4.2l-0.4,0c-2.7,0-5.1-0.5-6.8-1.1c-3.5-1.2-4.5-2.7-3.4-3.9c1.1-1.2,3.8-0.8,4-1.2
		c0.2-0.4-1.4-1.5-5.1-1c-3.6,0.5-6,3.8-1.4,5.7c2.6,1.1,4.6,1.4,5.4,1.6c-9.5-0.4-21-2.7-21.5-2.7c-1,0,0.7,2.2,2.5,2.5
		c2.7,0.4,7.9,0.7,15.1,0.9c0.1,0,0.1,0,0.1,0c0,0,0,0-0.1,0c-16.2,0.2-44.4,0.5-45.1,0.6c-1,0.2,1.8,3.5,4.2,3.8
		c5.8,0.8,29.1,0.5,42.4,0.4c0.1,0,0.1,0.1,0.1,0.1c-0.1,0-0.2,0-0.3,0c-12.9,1.4-43.5,4.9-44.6,5c-1.4,0.2,1,1.9,3.3,1.9
		c1.8,0,28.9-4.1,41.6-6.1c0.1,0,0.1,0,0.1,0c0,0-0.1,0.1-0.1,0.1c-11,3.1-45.9,13-46.8,13.4c-1.1,0.5,2.9,3.2,5.9,2.8
		c5.4-0.6,30.5-8,40.8-11.1c0,0,0,0,0.1,0c0,0,0,0,0,0.1C38.4,35.9,4.6,51.6,3.3,52.4c-1.6,1,2.2,1.6,5.1,0.5
		c2.3-0.9,29.6-15,40.9-20.8c0,0,0,0,0.1,0c0,0,0,0,0,0.1c-10.8,7.5-45.8,32-46.9,33.1C1.3,66.6,8,67.4,12,65.1
		c3.2-1.9,28.4-19.7,39.5-27.4c0,0,0.1-0.1,0.1,0c0,0,0,0.1,0,0.1c-9.7,8.5-48.2,42.7-49.1,44c-1.1,1.4,2.9,1.3,5.1-0.8
		c1.7-1.6,32.1-30.1,44.8-42.2c0,0,0.2,0,0.1,0.1C38,56,3.2,96.5,2.5,97.7c-0.9,1.6,5,2.1,8-1.4l45.2-52.9c0,0,0.1-0.1,0.1,0
		c0,0,0,0.1,0,0.1C45.8,57.6,7.9,111.3,7.2,112.9c-0.7,1.9,4.8,0.1,6.6-2.7c1.6-2.4,32.5-50.5,42.5-66.1c0,0,0-0.1,0.1-0.1
		c0.1,0,0,0.1,0,0.1c-8,15-36.8,68.8-37.3,70.3c-0.6,1.7,5.4,1.1,7.7-3c2.5-4.6,25.5-45.6,34.9-62.4c0,0,0.1-0.1,0.2-0.1
		c0.1,0,0.1,0.2,0.1,0.2c-6.4,15.7-29.6,66.4-30.2,68c-0.6,2,4.7-1.7,6.4-4.9c1.4-2.6,19.4-46.6,24.9-62.4c0,0,0-0.2,0.2-0.2
		c0.1,0,0.1,0.2,0.1,0.2c-4.7,16-19.9,65.4-20.3,67.2c-0.4,2.1,4.7-0.8,7-5.6c1.5-3,7.4-20.6,12.1-34.9c0.1,1.3,0.3,2.5,0.5,3.6
		c-3,13.6-6.7,30.9-7,32.3c-0.5,2.7,2.9,0.3,4.3-4.1c0.6-2,2.6-11.9,4.5-21.1c0.6,1.7,1.3,3.4,2.1,5c-1,8-1.9,15.8-2,16.6
		c-0.3,2.7,2.5,0.1,3.4-4.4c0.2-0.7,0.6-4.6,1-7.8c1.4,2.2,3,4.4,4.8,6.5c4.1,4.7,9.3,9.5,18.9,12.4l0.5,0.1l0.5-0.1
		c9.6-2.9,14.8-7.7,18.9-12.4c1.8-2,3.3-4.1,4.7-6.3c0.4,3.1,0.9,6.9,1,7.6c0.9,4.5,3.7,7.2,3.4,4.4c-0.1-0.8-1-8.5-2-16.3
		c0.8-1.6,1.6-3.3,2.1-5c1.8,9.3,3.9,19.4,4.5,21.4c1.4,4.4,4.9,6.8,4.3,4.1c-0.3-1.4-4-18.9-7-32.4c0.2-1.3,0.4-2.6,0.6-3.9
		c4.6,14.2,10.6,31.8,12.1,34.8c2.3,4.8,7.4,7.7,7,5.6c-0.3-1.7-15.5-51.2-20.3-67.2c0,0-0.1-0.2,0.1-0.2c0.1,0,0.2,0.2,0.2,0.2
		c5.5,15.8,23.5,59.8,24.9,62.4C150,115.4,155.3,119.1,154.6,117.1z M88.8,18.4l-1.3-1.2l5.1-0.1L88.8,18.4z M88.7,67.8
		c0.2-0.2,0.5-0.4,0.7-0.7l7.7,0c0.1,0.3,0.3,0.5,0.6,0.8c0.1,2.6,1.2,3.5,3.3,5c0.7,0.5,0.9,1,1.1,1.5l-18,0
		C84.6,72.3,88.6,72.3,88.7,67.8z M89.6,66.2c0.3-1.3,2.5-1.6,2.8-3.6c0.1-0.8,0.5-1,0.8-1c0.3,0,0.4,0.1,0.5,0.1
		c0.6,0.5-0.2,1.7,2.3,3.4c0.5,0.4,0.7,0.7,0.8,1.1L89.6,66.2z M83.2,75.9c0.2-0.2,0.6-0.4,0.8-0.7l18.6,0c0.2,0.3,0.4,0.5,0.7,0.8
		c0.1,3.5,2.7,4.3,5.2,6.4c0.7,0.6,0.9,1.3,1,2H77C77.3,80.9,83.1,80.9,83.2,75.9z M76.5,85.6c0.1,0,0.2-0.2,0.3-0.3h32.9
		c0.1,0.2,0.2,0.3,0.3,0.4l1.2,0.7H75.2L76.5,85.6z M74.2,87.4H112l0,11.7c-0.5,0.7-1.1,1.4-1.7,2c-0.2,0.2-0.4,0.4-0.6,0.6l-33.3,0
		c-0.2-0.2-0.4-0.4-0.5-0.6c-0.6-0.7-1.2-1.4-1.8-2.1L74.2,87.4z M93.2,112.6c-7-2.2-11.4-5.4-14.9-8.9l29.7,0
		C104.6,107.1,100.2,110.4,93.2,112.6z M119.9,84.4c-1.1,3.9-3.1,7.9-5.6,11.7l0-8c1.1,0.3,2-1.1,0.9-1.7l-3.4-2
		c-0.3-2.7-1.9-3.5-4-5.1c-3.6-2.6-1-3.2-3.2-4.9c-0.2-1.4-0.8-2.1-2-3c-4.1-2.9-1.4-3.3-3.4-5c-0.1-1.8-1.1-2.2-2.4-3.2
		c-1.3-1-0.1-3.5-3.5-3.5c-1.6,0-2.9,1-3,2.7c-0.2,1.1-2.6,1.4-2.8,3.9c-0.3,0.3-0.9,0.7-0.8,1.2c0.2,3.9-4.1,3.2-4.5,6.8
		c-0.4,0.3-1.1,0.7-1,1.3c0.3,4-5.7,3.9-6.2,8.7l-3.4,2c-1,0.6-0.3,1.8,0.7,1.8l0,7.9c-2.5-3.7-4.4-7.7-5.5-11.5
		c-1-3.5-1.6-7.3-2-12c-0.2-2.3-0.2-4.4-0.3-5.8c4.9-0.5,9-3.9,10.5-8.6l36.8,0c1.5,4.7,5.6,8.1,10.5,8.6c0,1.4-0.1,3.5-0.3,5.8
		C121.5,77.1,120.9,80.9,119.9,84.4z"/>
	<path class="st0" d="M79.6,96.7l9.5,0l1.5,0l0-3.6l0,0c-1-1.7-3.1-3.1-5.6-3.1c-2.5,0-4.7,1.4-5.7,3.2l0,3.5L79.6,96.7z M85.5,91.2
		c0.5,0,1,0.2,1.4,0.3v4l-1.4,0V91.2z M84.5,95.5l-1.5,0v-4c0.5-0.2,1-0.3,1.5-0.3V95.5z M89.3,93.4l0,2.1l-1.4,0v-3.5
		C88.5,92.4,88.9,92.9,89.3,93.4z M80.7,93.4c0.3-0.5,0.8-1,1.3-1.3v3.5l-1.3,0C80.7,95.5,80.7,93.4,80.7,93.4z"/>
	<polygon class="st0" points="88.6,79 88.6,82.2 89.6,82.2 89.6,79 90.6,79 90.6,82.2 91.6,82.2 91.6,79 92.7,79 92.7,82.2 
		93.7,82.2 93.7,79 94.9,79 94.9,82.2 95.9,82.2 95.9,79 97,79 97,82.2 98,82.2 98,79 99.2,79 99.2,78.1 87.3,78.1 87.3,79 	"/>
	<polygon class="st0" points="91.7,69.9 91.7,72.1 92.7,72.1 92.7,69.9 93.8,69.9 93.8,72.1 94.7,72.1 94.7,69.9 95.3,69.9 
		95.2,69.1 91.1,69.1 91.2,69.9 	"/>
	<path class="st0" d="M96,96.7l9.5,0l1.5,0l0-3.6l0,0c-1-1.7-3.1-3.1-5.6-3.1c-2.5,0-4.7,1.4-5.7,3.2l0,3.5L96,96.7z M101.9,91.2
		c0.5,0,1,0.2,1.4,0.3v4l-1.4,0V91.2z M100.9,95.6l-1.5,0v-4c0.5-0.2,1-0.3,1.5-0.3V95.6z M105.7,93.5l0,2.1l-1.4,0v-3.5
		C104.9,92.5,105.3,92.9,105.7,93.5z M97.1,93.4c0.3-0.5,0.8-1,1.3-1.3v3.5l-1.3,0C97.1,95.6,97.1,93.4,97.1,93.4z"/>
	<circle class="st0" cx="93.3" cy="65" r="0.7"/>
</g>
</svg>
